<svg xmlns="http://www.w3.org/2000/svg" xmlns:xlink="http://www.w3.org/1999/xlink" width="1920" zoomAndPan="magnify" viewBox="0 0 1440 809.999993" height="1080" preserveAspectRatio="xMidYMid meet" version="1.0"><defs><filter x="0%" y="0%" width="100%" height="100%" id="8d0f1e28f7"><feColorMatrix values="0 0 0 0 1 0 0 0 0 1 0 0 0 0 1 0 0 0 1 0" color-interpolation-filters="sRGB"/></filter><mask id="adef68b247"><g filter="url(#8d0f1e28f7)"><rect x="-144" width="1728" fill="#000000" y="-80.999999" height="971.999992" fill-opacity="0.149"/></g></mask><clipPath id="aea1af3351"><path d="M 241 3 L 405.210938 3 L 405.210938 26 L 241 26 Z M 241 3 " clip-rule="nonzero"/></clipPath><clipPath id="f6d3a4e0a6"><path d="M 1 8 L 278 8 L 278 408 L 1 408 Z M 1 8 " clip-rule="nonzero"/></clipPath><clipPath id="634177c7cf"><rect x="0" width="408" y="0" height="408"/></clipPath><mask id="1f93f5a9c5"><g filter="url(#8d0f1e28f7)"><rect x="-144" width="1728" fill="#000000" y="-80.999999" height="971.999992" fill-opacity="0.149"/></g></mask><clipPath id="6d14885e94"><path d="M 1 0.339844 L 416 0.339844 L 416 282.339844 L 1 282.339844 Z M 1 0.339844 " clip-rule="nonzero"/></clipPath><clipPath id="021d8ad8c8"><rect x="0" width="416" y="0" height="283"/></clipPath><mask id="194efa861d"><g filter="url(#8d0f1e28f7)"><rect x="-144" width="1728" fill="#000000" y="-80.999999" height="971.999992" fill-opacity="0.149"/></g></mask><clipPath id="7e1f7db31e"><path d="M 0 2.222656 L 412.320312 2.222656 L 412.320312 284.222656 L 0 284.222656 Z M 0 2.222656 " clip-rule="nonzero"/></clipPath><clipPath id="c6a2ec9518"><rect x="0" width="414" y="0" height="286"/></clipPath></defs><rect x="-144" width="1728" fill="#ffffff" y="-80.999999" height="971.999992" fill-opacity="1"/><rect x="-144" width="1728" fill="#ffffff" y="-80.999999" height="971.999992" fill-opacity="1"/><rect x="-144" width="1728" fill="#121f28" y="-80.999999" height="971.999992" fill-opacity="1"/><g mask="url(#adef68b247)"><g transform="matrix(1, 0, 0, 1, 517, 402)"><g clip-path="url(#634177c7cf)"><g clip-path="url(#aea1af3351)"><path fill="#ff7700" d="M 400.46875 20.691406 C 400.46875 20.691406 400.441406 20.691406 400.417969 20.691406 C 400.570312 20.234375 400.644531 20.890625 400.46875 20.691406 M 399.558594 20.691406 C 397.289062 20.691406 394.992188 20.691406 392.71875 20.691406 C 394.234375 20.488281 395.773438 20.3125 397.289062 20.160156 C 398.070312 20.085938 398.902344 19.957031 399.710938 19.707031 C 399.710938 19.707031 399.710938 19.730469 399.710938 19.757812 C 399.785156 20.058594 399.863281 20.335938 399.9375 20.640625 C 399.761719 20.640625 399.585938 20.664062 399.535156 20.664062 M 348.859375 20.789062 C 349.285156 20.714844 349.742188 20.664062 350.171875 20.589844 C 351.480469 20.335938 352.695312 20.511719 353.878906 20.816406 C 352.214844 20.816406 350.523438 20.816406 348.859375 20.816406 M 404.65625 18.570312 C 404.582031 18.242188 404.457031 17.890625 404.40625 17.539062 C 404.40625 17.488281 404.40625 17.308594 404.40625 17.285156 C 404.40625 17.261719 404.40625 17.234375 404.40625 17.210938 C 405.238281 15.394531 403.875 13.753906 402.359375 13.476562 C 401.453125 12.015625 399.558594 11.03125 397.160156 11.15625 C 390.222656 11.535156 383.179688 11.03125 376.367188 10.601562 C 362.484375 9.71875 348.578125 9.316406 334.699219 8.105469 C 328.441406 7.574219 322.054688 8.40625 315.820312 7.753906 C 308.753906 7.019531 301.714844 6.464844 294.597656 6.441406 C 289.449219 6.441406 284.300781 5.609375 279.175781 5.859375 C 274.355469 6.089844 269.6875 5.457031 264.945312 5.078125 C 257.929688 4.5 250.785156 5.988281 243.871094 3.816406 C 242.484375 3.390625 241.550781 3.390625 242.078125 5.304688 C 243.113281 8.914062 242.785156 12.519531 241.800781 16.101562 C 241.523438 17.109375 241.726562 17.5625 243.089844 17.664062 C 249.371094 18.144531 255.683594 18.191406 261.964844 18.570312 C 266.128906 18.824219 270.320312 19 274.507812 19.175781 C 290.964844 22.933594 307.820312 24.648438 324.679688 25.378906 C 344.414062 26.214844 364.175781 25.886719 383.914062 25.808594 C 386.765625 25.808594 389.640625 25.808594 392.492188 25.785156 C 395.242188 25.785156 398.09375 25.984375 400.871094 25.734375 C 403.320312 25.507812 405.261719 23.816406 405.1875 21.246094 C 405.1875 20.335938 404.910156 19.429688 404.683594 18.546875 " fill-opacity="1" fill-rule="nonzero"/></g><path fill="#ff7700" d="M 230.21875 8.457031 C 230.445312 8.558594 230.695312 8.683594 230.925781 8.835938 C 231 8.886719 231.074219 8.9375 231.152344 8.988281 C 231.152344 8.988281 231.152344 8.988281 231.203125 9.011719 C 231.378906 9.191406 231.582031 9.367188 231.757812 9.566406 C 231.808594 9.617188 231.859375 9.695312 231.910156 9.746094 C 231.910156 9.769531 231.933594 9.796875 231.984375 9.84375 C 232.1875 10.199219 232.386719 10.527344 232.5625 10.878906 C 232.613281 10.980469 232.742188 11.308594 232.765625 11.382812 C 232.84375 11.636719 232.917969 11.886719 232.992188 12.164062 C 233.042969 12.394531 233.09375 12.621094 233.121094 12.847656 C 233.121094 12.847656 233.171875 13.503906 233.195312 13.578125 C 233.21875 14.183594 233.21875 14.789062 233.195312 15.394531 C 233.121094 16.832031 232.96875 17.539062 232.691406 19.101562 C 232.464844 20.414062 233.042969 21.902344 234.457031 22.226562 C 235.695312 22.503906 237.359375 21.851562 237.585938 20.464844 C 238.140625 17.234375 238.722656 13.878906 237.839844 10.628906 C 237.132812 7.929688 235.390625 5.304688 232.792969 4.09375 C 231.582031 3.539062 229.988281 3.71875 229.308594 5.003906 C 228.703125 6.136719 228.929688 7.878906 230.21875 8.484375 " fill-opacity="1" fill-rule="nonzero"/><g clip-path="url(#f6d3a4e0a6)"><path fill="#ff7700" d="M 272.945312 339.386719 C 272.792969 363.09375 272.109375 386.773438 270.976562 410.457031 C 270.898438 397.015625 270.824219 383.597656 270.75 370.15625 C 270.722656 365.742188 271.277344 361.277344 270.144531 356.914062 C 270.191406 356.8125 270.292969 356.6875 270.269531 356.585938 C 270.191406 356.386719 270.066406 356.207031 269.992188 356.007812 C 271.078125 346.449219 270.144531 336.890625 269.863281 327.332031 C 270.242188 313.511719 269.714844 299.742188 268.980469 285.949219 C 269.636719 276.640625 270.292969 267.335938 270.976562 258.03125 C 271.027344 257.222656 270.570312 256.742188 269.941406 256.542969 C 270.015625 255.128906 270.117188 253.691406 270.191406 252.28125 C 270.394531 248.851562 270.570312 245.421875 270.773438 241.992188 C 272.4375 274.421875 273.171875 306.90625 272.96875 339.363281 M 232.464844 559.855469 C 231.808594 561.242188 231.300781 560.359375 230.875 559.855469 C 231.300781 560.335938 231.808594 561.21875 232.464844 559.855469 C 235.238281 564.015625 238.34375 567.722656 242.15625 570.648438 C 238.34375 567.722656 235.238281 564.015625 232.464844 559.855469 M 127.25 163.660156 C 125.078125 164.085938 123.617188 165.902344 122.933594 167.945312 C 111.273438 168.527344 99.640625 169.082031 88.5625 172.382812 C 76.800781 173.695312 66.351562 181.917969 67.132812 197.25 C 67.460938 203.730469 67.738281 210.214844 68.019531 216.695312 C 67.082031 216.972656 66.277344 217.527344 66.199219 218.257812 C 64.332031 234.324219 63.980469 250.539062 65.117188 266.65625 C 63.953125 266.855469 62.742188 267.410156 62.667969 268.042969 C 62.667969 268.191406 62.640625 268.371094 62.617188 268.519531 L 62.617188 181.792969 C 62.617188 180.53125 62.917969 179.496094 63.246094 178.488281 C 59.867188 176.925781 56.558594 175.210938 53.203125 173.644531 C 50.503906 188.675781 45.605469 203.253906 43.816406 218.460938 C 43.488281 221.234375 39.523438 222.191406 38.691406 219.167969 C 30.917969 191.046875 22.765625 163.003906 16.734375 134.453125 C 15.601562 132.539062 14.339844 130.722656 12.699219 129.285156 C 12.445312 129.058594 12.824219 128.703125 13.050781 128.933594 C 14.414062 130.117188 15.5 131.605469 16.484375 133.144531 C 16.40625 132.664062 16.585938 132.285156 16.734375 131.90625 C 16.304688 131.65625 15.902344 131.402344 15.472656 131.152344 C 15.195312 130.972656 15.472656 130.546875 15.726562 130.722656 C 16.105469 130.949219 16.457031 131.152344 16.835938 131.378906 C 17.921875 129.636719 20.976562 129.386719 21.503906 131.90625 C 21.707031 132.816406 21.910156 133.699219 22.109375 134.605469 C 26.023438 137 29.882812 139.472656 33.339844 142.5 C 33.71875 142.828125 34.074219 143.230469 34.453125 143.585938 C 33.996094 143.382812 33.570312 143.179688 33.113281 143.105469 C 32.585938 142.625 32.105469 142.070312 31.550781 141.617188 C 28.621094 139.222656 25.46875 137.179688 22.261719 135.210938 C 23.222656 139.75 24.382812 144.214844 25.46875 148.730469 C 25.292969 149.988281 25.390625 151.328125 26.175781 152.738281 C 26.578125 153.445312 26.679688 154.253906 26.929688 155.007812 C 27.257812 156.371094 27.5625 157.730469 27.890625 159.09375 C 28.34375 163.9375 27.460938 169.183594 27.890625 173.796875 C 28.34375 178.414062 29.65625 182.347656 31.574219 186.53125 C 33.011719 189.660156 34.527344 192.484375 34.148438 195.964844 C 33.769531 199.421875 36.394531 201.5625 39.375 202.144531 C 39.777344 203.632812 40.207031 205.121094 40.609375 206.609375 C 40.914062 205.144531 41.292969 203.707031 41.621094 202.269531 C 44.167969 202.042969 46.492188 200.65625 46.96875 197.703125 C 48.082031 190.921875 49.214844 184.136719 50.351562 177.351562 C 50.65625 175.511719 50.957031 173.671875 51.261719 171.855469 C 51.410156 170.972656 51.6875 169.886719 51.890625 168.828125 C 53.582031 168.855469 55.246094 168.980469 56.914062 169.183594 C 62.542969 169.863281 68.117188 171.125 73.820312 171.074219 C 73.972656 171.351562 74.125 171.628906 74.226562 171.929688 C 74.933594 172.007812 75.5625 172.257812 76.246094 172.433594 C 76.371094 171.804688 76.75 171.25 77.53125 170.871094 C 77.609375 170.847656 77.683594 170.820312 77.757812 170.796875 C 82.050781 170.292969 86.011719 169.003906 89.644531 166.761719 C 99.917969 164.1875 110.59375 163.632812 121.242188 163.078125 C 121.292969 163.078125 121.320312 163.105469 121.34375 163.105469 C 123.386719 163.304688 125.457031 163.40625 127.527344 163.582031 C 127.425781 163.582031 127.351562 163.632812 127.25 163.632812 M 65.46875 415.574219 C 66.804688 395.804688 68.144531 376.007812 69.480469 356.234375 C 69.632812 354.089844 69.757812 351.945312 69.910156 349.804688 C 69.609375 372.347656 69.027344 394.871094 68.117188 417.417969 C 67.132812 416.9375 66.226562 416.332031 65.445312 415.574219 M 14.894531 596.601562 C 15.09375 594.582031 15.324219 592.566406 15.550781 590.546875 C 15.726562 598.316406 15.902344 606.058594 16.003906 613.824219 C 14.289062 608.300781 14.261719 602.527344 14.917969 596.625 M 5.808594 596.625 C 5.683594 574.8125 5.933594 552.972656 6.589844 531.15625 C 7.09375 514.386719 7.851562 497.613281 8.8125 480.867188 C 11.109375 514.460938 12.191406 548.203125 8.054688 581.671875 C 7.449219 586.664062 6.664062 591.65625 5.78125 596.625 M 13.027344 459.988281 C 12.46875 456.507812 11.863281 453.027344 11.234375 449.570312 C 11.183594 449.269531 11.058594 449.042969 10.878906 448.839844 C 10.980469 447.351562 11.082031 445.863281 11.207031 444.351562 C 11.5625 439.886719 11.964844 435.449219 12.34375 431.007812 C 12.699219 440.667969 12.949219 450.300781 13.027344 459.960938 M 66.378906 280.222656 C 65.59375 289.65625 64.8125 299.113281 64.03125 308.542969 C 63.550781 314.269531 63.070312 319.992188 62.566406 325.695312 L 62.566406 321.632812 C 63.070312 311.898438 63.753906 302.136719 64.636719 292.429688 C 65.066406 287.535156 65.570312 282.667969 66.125 277.800781 C 66.226562 278.609375 66.300781 279.414062 66.402344 280.222656 M 62.84375 385.664062 C 63.222656 378.050781 63.726562 370.40625 64.257812 362.792969 C 64.359375 362.085938 64.433594 361.355469 64.535156 360.648438 C 63.980469 368.996094 63.398438 377.316406 62.84375 385.664062 M 39.425781 148.527344 C 40.964844 150.066406 42.605469 151.628906 44.574219 152.613281 C 46.71875 153.671875 49.089844 153.898438 51.460938 153.671875 C 54.792969 153.34375 58.097656 152.964844 61.429688 152.664062 C 68.269531 152.03125 75.132812 151.476562 81.949219 150.519531 C 88.511719 149.613281 95.023438 148.351562 101.332031 146.257812 C 101.632812 146.15625 101.785156 146.636719 101.480469 146.738281 C 100.726562 146.988281 99.941406 147.242188 99.1875 147.46875 C 92.75 149.382812 86.113281 150.519531 79.476562 151.351562 C 72.609375 152.210938 65.746094 152.738281 58.855469 153.394531 C 57.140625 153.546875 55.449219 153.722656 53.757812 153.898438 C 52.292969 154.050781 50.855469 154.277344 49.394531 154.25 C 47.195312 154.203125 45.101562 153.597656 43.234375 152.410156 C 41.417969 151.25 39.878906 149.6875 38.363281 148.125 C 38.160156 147.695312 37.984375 147.265625 37.757812 146.863281 C 38.3125 147.441406 38.894531 147.972656 39.449219 148.527344 M 92.726562 155.6875 C 94.71875 155.4375 96.710938 155.132812 98.679688 154.679688 C 98.679688 154.402344 98.730469 154.101562 98.757812 153.824219 C 98.757812 154.101562 98.707031 154.402344 98.679688 154.679688 C 96.710938 155.132812 94.71875 155.4375 92.726562 155.6875 M 112.863281 160.40625 C 107.816406 162.070312 102.566406 162.902344 97.316406 163.660156 C 95.855469 163.859375 94.390625 164.085938 92.902344 164.3125 C 93.078125 164.136719 93.179688 163.910156 93.332031 163.710938 C 99.84375 162.726562 106.429688 161.96875 112.710938 159.902344 C 113.039062 159.800781 113.167969 160.304688 112.863281 160.40625 M 273.324219 205.925781 C 273.324219 205.625 273.121094 205.421875 272.84375 205.296875 C 272.96875 203.101562 273.09375 200.933594 273.222656 198.738281 C 273.347656 196.722656 270.292969 196.722656 269.007812 197.933594 C 269.4375 183.808594 269.738281 169.6875 269.460938 155.5625 C 269.410156 152.359375 268.300781 150.949219 265.953125 149.6875 C 265.777344 148.753906 265.222656 148.628906 264.464844 149.007812 C 264.464844 149.007812 264.238281 148.929688 264.238281 148.929688 C 264.011719 147.316406 262.496094 146.660156 261.4375 146.132812 C 258.40625 144.542969 256.035156 142.5 254.546875 139.421875 C 252.878906 136.472656 251.140625 133.597656 247.402344 132.917969 C 247.101562 132.765625 246.796875 132.613281 246.496094 132.460938 C 246.066406 131.78125 245.535156 131.480469 244.777344 132.085938 C 244.375 132.007812 243.945312 131.90625 243.515625 131.808594 C 242.761719 130.972656 241.953125 130.546875 240.917969 131.402344 C 239.378906 131.453125 237.839844 131.527344 236.324219 131.578125 C 230.066406 130.925781 224.007812 132.285156 217.925781 133.320312 C 216.613281 133.648438 215.175781 133.671875 214.167969 134.78125 C 213.28125 134.933594 212.398438 135.058594 211.515625 135.210938 C 210.429688 135.96875 209.21875 135.941406 208.007812 135.96875 C 209.21875 135.917969 210.457031 135.96875 211.515625 135.210938 C 208.285156 134.960938 208.613281 132.132812 208.136719 130.191406 C 207.429688 127.34375 208.511719 125.5 211.894531 125.375 C 218.609375 125.097656 225.121094 122.375 232.742188 124.339844 C 230.722656 122.097656 229.636719 120.078125 227.164062 119.652344 C 222.921875 115.945312 216.210938 115.289062 214.015625 109.058594 C 212.324219 107.089844 210.457031 105.476562 207.578125 105.90625 C 204.828125 106.308594 204.019531 105.023438 204.25 102.425781 C 204.878906 94.757812 205.332031 87.066406 205.9375 79.375 C 206.34375 74.355469 206.871094 69.339844 207.351562 64.320312 C 207.628906 61.34375 208.765625 58.34375 207.226562 55.390625 C 207.757812 54.886719 208.285156 54.410156 208.839844 53.902344 C 209.675781 53.398438 209.726562 52.894531 208.816406 52.414062 C 208.742188 52.1875 208.691406 51.988281 208.664062 51.761719 C 208.664062 51.304688 208.460938 51.054688 208.007812 51.003906 C 208.007812 51.003906 207.957031 50.953125 207.957031 50.953125 C 207.730469 50.699219 207.503906 50.449219 207.25 50.222656 C 207.277344 49.414062 207.300781 48.632812 207.328125 47.824219 C 208.285156 47.851562 209.195312 47.523438 209.320312 46.539062 C 209.472656 45.304688 208.511719 44.875 207.402344 44.773438 C 207.402344 44.269531 207.402344 43.789062 207.402344 43.285156 C 210.609375 41.847656 207.882812 38.949219 208.917969 36.980469 C 209.117188 37.03125 209.347656 37.058594 209.546875 37.03125 C 211.972656 36.90625 211.667969 34.988281 211.945312 33.425781 C 212.097656 32.59375 211.339844 30.550781 213.609375 31.886719 C 214.367188 32.339844 214.875 31.9375 214.898438 31.179688 C 214.921875 30.046875 215.429688 29.316406 216.109375 28.734375 C 217.320312 28.734375 218.53125 28.761719 219.742188 28.761719 C 221.511719 28.761719 223.300781 28.582031 224.890625 27.75 C 228.070312 26.085938 228.957031 21.421875 226.054688 19.125 C 226.40625 18.796875 226.835938 18.546875 227.367188 18.394531 C 229.359375 17.839844 228.046875 20.742188 229.839844 20.640625 C 230.367188 19.933594 231.074219 19.203125 231.53125 18.320312 C 234.054688 13.375 233.042969 10.703125 227.972656 8.558594 C 227.566406 8.382812 227.214844 8.332031 226.910156 8.359375 C 226.203125 8.308594 225.496094 8.507812 225.042969 9.089844 C 225.042969 9.089844 224.917969 9.242188 224.84375 9.316406 C 224.742188 9.339844 224.664062 9.390625 224.5625 9.390625 C 224.488281 9.390625 224.386719 9.417969 224.3125 9.417969 C 223.65625 9.417969 223.023438 9.46875 222.394531 9.46875 C 220.5 9.519531 218.734375 9.996094 217.042969 10.828125 C 215.554688 11.558594 214.191406 12.671875 213.183594 13.957031 C 212.855469 14.386719 212.527344 14.8125 212.25 15.242188 C 212.148438 15.394531 212.046875 15.546875 211.921875 15.695312 C 211.894531 15.722656 211.894531 15.746094 211.871094 15.773438 C 211.871094 15.773438 211.84375 15.796875 211.820312 15.847656 C 211.742188 15.921875 211.667969 16 211.617188 16.074219 C 211.238281 16.074219 210.859375 16 210.457031 15.921875 C 210.304688 15.898438 210.054688 16.125 209.824219 16.429688 C 209.421875 16.628906 209.09375 16.933594 208.867188 17.359375 C 208.714844 17.664062 208.613281 18.015625 208.589844 18.371094 C 206.949219 20.839844 205.054688 22.582031 201.445312 21.117188 C 200.691406 20.816406 197.988281 20.4375 198.746094 22.179688 C 200.386719 26.0625 197.410156 25.886719 195.566406 26.3125 C 193.75 26.71875 192.789062 27.375 192.867188 29.238281 C 192.917969 30.425781 192.691406 31.457031 191.882812 32.417969 C 188.753906 36.175781 190.847656 41.394531 188.324219 45.328125 C 188.171875 45.582031 188.324219 46.109375 188.476562 46.4375 C 190.242188 50.347656 187.339844 54.105469 188.425781 58.292969 C 189.382812 61.972656 187.871094 66.261719 187.515625 70.296875 C 186.480469 81.746094 185.394531 93.222656 184.511719 104.695312 C 184.335938 106.992188 183.351562 107.34375 181.410156 107.394531 C 171.945312 107.695312 162.707031 109.917969 153.242188 110.75 C 141.179688 111.78125 129.191406 113.574219 117.078125 114.355469 C 109.15625 114.859375 101.253906 116.070312 93.332031 116.925781 C 81.167969 118.238281 69 119.675781 56.863281 121.316406 C 51.589844 122.023438 46.339844 122.5 41.039062 122.828125 C 37.277344 123.054688 33.292969 123.257812 29.859375 124.59375 C 25.390625 126.359375 21.203125 126.988281 16.558594 125.855469 C 15.421875 125.578125 13.605469 125.046875 13.253906 127.242188 C 11.257812 127.671875 9.011719 126.257812 7.195312 128.050781 C 7.171875 133.949219 7.09375 139.851562 7.144531 145.777344 C 7.273438 163.179688 7.421875 180.582031 7.601562 197.980469 C 7.699219 206.960938 7.929688 215.9375 8.078125 224.917969 L 8.078125 226.480469 C 7.777344 227.011719 7.800781 227.515625 8.128906 228.042969 C 8.179688 229.28125 8.207031 230.515625 8.257812 231.75 C 8.128906 234.523438 7.878906 237.324219 7.878906 240.097656 C 8.027344 279.414062 8.9375 318.734375 9.695312 358.050781 C 9.945312 370.632812 10.425781 383.21875 10.980469 395.804688 C 10.980469 395.855469 10.957031 395.902344 10.929688 395.980469 C 7.953125 424.65625 5.632812 453.40625 4.015625 482.203125 C 2.375 511.132812 1.417969 540.082031 1.140625 569.0625 C 0.988281 585.351562 1.039062 601.667969 1.316406 617.960938 C 1.367188 620.632812 5.582031 619.675781 6.109375 617.632812 C 7.550781 612.007812 8.8125 606.359375 9.871094 600.710938 C 9.542969 606.058594 9.796875 611.402344 11.765625 616.472656 C 14.136719 622.550781 18.097656 627.972656 21.960938 633.195312 C 20.648438 633.597656 20.421875 634.632812 21.453125 636.167969 C 23.09375 638.589844 25.0625 640.757812 26.628906 643.207031 C 33.164062 653.394531 41.492188 662.09375 49.46875 671.097656 C 50.351562 672.105469 51.160156 673.394531 52.773438 673.445312 L 52.800781 673.445312 C 52.800781 675.535156 53.757812 676.847656 55.828125 677.25 C 55.953125 677.402344 56.03125 677.578125 56.082031 677.757812 C 56.082031 680.152344 57.644531 681.1875 59.664062 681.816406 L 62.820312 685.574219 C 63.902344 685.574219 64.359375 686.128906 64.230469 687.164062 C 66.175781 689.078125 67.890625 691.273438 70.515625 692.359375 C 70.820312 692.183594 71.121094 692.003906 71.398438 691.828125 C 73.820312 692.308594 76.246094 692.28125 78.691406 691.878906 C 81.746094 690.367188 84.976562 690.0625 88.308594 690.542969 C 88.988281 690.492188 89.671875 690.417969 90.328125 690.367188 C 91.183594 688.878906 92.421875 689.382812 93.632812 689.734375 C 94.316406 689.683594 94.996094 689.632812 95.675781 689.585938 C 96.511719 688.222656 97.546875 688.375 98.679688 689.128906 L 100.09375 689.03125 C 103.023438 687.113281 106.328125 687.214844 109.632812 687.363281 C 110.339844 687.3125 111.023438 687.265625 111.703125 687.238281 C 114.351562 685.925781 117.078125 685.246094 120.058594 685.976562 C 120.535156 685.925781 120.992188 685.902344 121.46875 685.851562 C 123.894531 684.390625 126.417969 683.558594 129.242188 684.539062 C 129.722656 684.488281 130.175781 684.441406 130.65625 684.390625 C 133.027344 682.722656 135.652344 682.398438 138.429688 683.027344 C 138.882812 682.925781 139.363281 682.851562 139.816406 682.773438 C 140.449219 681.691406 141.230469 681.4375 142.265625 682.269531 C 142.746094 682.21875 143.199219 682.167969 143.679688 682.09375 C 144.535156 680.554688 145.847656 680.984375 147.136719 681.3125 C 147.566406 681.261719 147.996094 681.1875 148.421875 681.136719 C 149.027344 680.078125 149.785156 679.949219 150.695312 680.78125 C 151.148438 680.730469 151.628906 680.65625 152.082031 680.605469 C 152.914062 679.144531 154.027344 679.167969 155.261719 680.050781 L 157.433594 679.847656 C 157.988281 678.613281 158.796875 678.363281 159.855469 679.269531 L 162.027344 679.015625 C 162.355469 678.4375 162.757812 678.132812 163.1875 678.007812 C 162.757812 678.132812 162.355469 678.4375 162.027344 679.015625 C 163.339844 679.523438 164.601562 679.722656 165.484375 678.234375 C 165.914062 678.210938 166.34375 678.183594 166.796875 678.160156 C 168.03125 676.519531 170.050781 676.875 171.667969 676.597656 C 187.113281 673.949219 202.480469 670.898438 217.773438 667.464844 C 219.085938 667.164062 220.527344 666.761719 221.789062 667.792969 C 222.242188 667.71875 222.722656 667.644531 223.175781 667.566406 C 223.453125 667.113281 223.757812 666.785156 224.085938 666.609375 C 223.757812 666.785156 223.429688 667.113281 223.175781 667.566406 C 224.363281 668.046875 225.523438 668.324219 226.355469 666.960938 C 226.835938 666.9375 227.316406 666.910156 227.769531 666.886719 C 228.351562 665.878906 229.082031 665.601562 229.863281 665.652344 C 229.082031 665.601562 228.351562 665.851562 227.769531 666.886719 C 229.183594 667.1875 230.621094 667.746094 231.679688 666.15625 C 232.160156 666.128906 232.613281 666.105469 233.09375 666.078125 C 233.398438 665.375 233.800781 664.996094 234.28125 664.96875 C 233.800781 664.996094 233.398438 665.375 233.09375 666.078125 C 234.078125 666.507812 234.960938 666.585938 235.515625 665.449219 C 235.996094 665.398438 236.476562 665.375 236.929688 665.324219 C 238.066406 664.136719 239.328125 663.960938 240.613281 664.113281 C 239.328125 663.960938 238.066406 664.113281 236.929688 665.324219 C 239.050781 665.601562 241.246094 666.332031 243.113281 664.566406 C 243.59375 664.542969 244.074219 664.515625 244.550781 664.464844 C 245.8125 663.203125 247.253906 663.203125 248.691406 663.40625 C 247.226562 663.230469 245.8125 663.203125 244.550781 664.492188 C 246.824219 665.296875 248.96875 664.996094 250.960938 663.683594 C 255.125 663.382812 259.316406 663.078125 263.480469 662.777344 C 265.09375 662.648438 266.507812 662.320312 266.960938 660.480469 C 267.191406 660.480469 267.441406 660.480469 267.667969 660.480469 C 267.847656 660.328125 268.074219 660.277344 268.300781 660.277344 C 270.269531 657.65625 269.636719 654.65625 269.664062 651.730469 C 269.664062 649.433594 269.585938 647.164062 269.664062 644.871094 C 270.015625 626.433594 270.519531 608.023438 270.722656 589.589844 C 270.898438 574.710938 270.671875 559.832031 270.722656 544.949219 C 270.824219 522.328125 271.203125 499.683594 271.203125 477.035156 C 271.203125 476.683594 271.203125 476.304688 271.203125 475.949219 C 273.070312 454.640625 274.558594 433.304688 275.617188 411.945312 C 277.789062 368.214844 278.269531 324.382812 277.058594 280.601562 C 276.375 255.683594 275.113281 230.792969 273.324219 205.953125 " fill-opacity="1" fill-rule="nonzero"/></g></g></g></g><g mask="url(#1f93f5a9c5)"><g transform="matrix(1, 0, 0, 1, 1024, 159)"><g clip-path="url(#021d8ad8c8)"><g clip-path="url(#6d14885e94)"><path fill="#ccdee2" d="M 146.882812 159.035156 C 149.703125 159.207031 152.535156 159.390625 155.351562 159.589844 C 161.347656 160.671875 167.367188 161.769531 173.386719 162.851562 C 174.527344 163.378906 175.652344 163.90625 176.777344 164.445312 C 176.234375 165.128906 175.679688 165.785156 175.109375 166.367188 C 165.660156 164.089844 156.25 161.640625 146.871094 159.035156 M 81.476562 146.203125 C 93.007812 148.296875 104.550781 150.390625 116.125 152.484375 C 118.246094 153.152344 120.367188 153.824219 122.488281 154.476562 C 108.652344 152.613281 94.945312 149.851562 81.464844 146.203125 M 54.960938 137.789062 C 55.871094 137.789062 56.765625 137.832031 57.679688 137.875 C 57.492188 138.359375 57.691406 138.871094 58.445312 139.011719 C 58.433594 139.011719 58.417969 139.011719 58.40625 139.011719 C 57.25 138.613281 56.113281 138.1875 54.972656 137.773438 M 122.914062 75.800781 C 124.195312 76.710938 125.476562 77.625 126.757812 78.550781 C 134.273438 84.332031 141.71875 90.199219 149.0625 96.191406 C 151.027344 97.789062 152.976562 99.410156 154.925781 101.019531 C 144.121094 92.773438 133.445312 84.375 122.914062 75.800781 M 22.832031 4.199219 C 23.289062 5.011719 23.773438 5.796875 24.300781 6.550781 C 23.246094 5.9375 22.191406 5.3125 21.140625 4.699219 C 20.640625 4.398438 19.800781 4.640625 19.246094 4.839844 C 18.109375 4.242188 16.984375 3.632812 15.859375 3.003906 C 18.207031 3.347656 20.527344 3.746094 22.847656 4.214844 M 36.285156 7.488281 C 34.632812 7.191406 32.953125 7.019531 31.21875 7.078125 L 31.21875 7.730469 C 30.378906 7.003906 29.550781 6.28125 28.742188 5.523438 C 31.273438 6.136719 33.777344 6.792969 36.285156 7.503906 M 206.511719 228.214844 C 231.148438 222.476562 255.773438 216.679688 280.34375 210.613281 C 280.429688 210.585938 280.5 210.585938 280.585938 210.570312 C 276.828125 211.78125 273.054688 212.960938 269.285156 214.160156 C 269.113281 213.675781 267.816406 213.988281 267.546875 214.058594 C 250.976562 218.546875 234.410156 223.03125 217.683594 226.902344 C 206.851562 229.410156 195.964844 231.476562 185.046875 233.367188 C 192.191406 231.617188 199.351562 229.894531 206.523438 228.214844 M 357.023438 27.484375 C 363.613281 36.398438 371.753906 44.171875 378.757812 52.800781 C 369.121094 43.703125 359.585938 34.488281 350.488281 24.835938 C 348.910156 24.078125 347.828125 22.441406 346.6875 21.03125 C 347.128906 20.578125 347.585938 20.136719 348.027344 19.679688 C 348.566406 19.125 347.558594 18.894531 347.199219 18.882812 C 346.53125 18.882812 345.804688 19.125 345.28125 19.550781 C 344.582031 18.980469 343.800781 18.625 342.84375 18.640625 C 344.324219 17.046875 345.792969 15.4375 347.242188 13.8125 C 349.679688 18.867188 353.207031 23.28125 357.023438 27.484375 M 460.0625 51.777344 C 456.71875 52.703125 453.375 53.628906 450.027344 54.582031 C 440.078125 57.417969 430.171875 60.492188 420.421875 63.980469 C 427.28125 61.132812 434.300781 58.699219 441.429688 56.589844 C 447.59375 54.769531 453.816406 53.203125 460.0625 51.777344 M 554.449219 28.539062 C 554.605469 30.34375 554.351562 31.683594 553.824219 32.679688 C 549.042969 33.691406 544.246094 34.675781 539.433594 35.613281 C 528.644531 37.707031 517.796875 39.460938 506.964844 41.210938 C 522.765625 36.925781 538.578125 32.582031 554.449219 28.539062 M 629.039062 13.214844 C 622.929688 14.867188 616.894531 16.816406 610.675781 18.171875 C 603.472656 19.722656 596.726562 23.4375 588.925781 22.597656 C 586.976562 22.386719 585.382812 23.167969 584.199219 24.820312 C 583.703125 25.519531 583.105469 26.046875 582.390625 26.402344 C 581.480469 26.613281 580.554688 26.8125 579.644531 27.011719 C 577.59375 27.253906 575.617188 27.753906 573.667969 28.351562 C 567.929688 29.632812 562.195312 30.902344 556.441406 32.125 C 555.816406 30.988281 555.988281 29.476562 556.457031 28.039062 C 570.234375 24.550781 584.070312 21.289062 597.992188 18.484375 C 608.285156 16.40625 618.648438 14.625 629.039062 13.230469 M 603.65625 52.660156 C 603.402344 52.84375 603.144531 53.03125 602.890625 53.214844 C 605.695312 50.910156 608.496094 48.574219 611.257812 46.210938 C 615.855469 42.265625 620.339844 38.191406 624.839844 34.132812 C 631.386719 29.960938 637.976562 25.832031 644.679688 21.914062 C 631.1875 32.394531 617.523438 42.675781 603.671875 52.675781 M 574.507812 129.457031 C 564.199219 127.59375 553.882812 125.710938 543.574219 123.847656 C 547.320312 124.375 551.0625 124.945312 554.804688 125.585938 C 561.410156 126.710938 567.988281 128.003906 574.519531 129.457031 M 629.363281 143.285156 C 631.542969 142.972656 633.71875 142.671875 635.898438 142.386719 C 634.320312 142.902344 632.722656 143.414062 631.128906 143.910156 C 630.546875 143.699219 629.949219 143.5 629.363281 143.285156 M 604.78125 151.375 C 608.425781 150.320312 612.070312 149.238281 615.714844 148.125 C 616.199219 147.984375 617.28125 147.542969 617.09375 146.859375 C 616.910156 146.191406 615.730469 146.320312 615.257812 146.445312 C 600.269531 150.988281 585.167969 155.160156 569.980469 158.964844 C 561.355469 160.53125 552.683594 161.882812 543.988281 162.992188 C 542.820312 163.148438 541.640625 163.277344 540.472656 163.421875 C 547.746094 161.15625 555.046875 159.019531 562.40625 157.042969 C 579.601562 152.425781 596.996094 148.597656 614.546875 145.605469 C 617.066406 145.179688 619.570312 144.765625 622.089844 144.367188 C 623.515625 144.695312 624.921875 145.035156 626.347656 145.363281 C 619.203125 147.515625 612 149.507812 604.769531 151.359375 M 534.265625 167.167969 C 529.925781 168.078125 525.570312 168.945312 521.214844 169.785156 C 524.730469 168.546875 528.257812 167.351562 531.789062 166.183594 C 536.984375 165.640625 542.167969 165.015625 547.347656 164.316406 C 542.992188 165.300781 538.636719 166.253906 534.265625 167.167969 M 561.269531 199.464844 C 569.695312 205.445312 577.878906 211.738281 585.738281 218.460938 C 580.511719 215.46875 575.261719 212.550781 570.023438 209.574219 C 567.902344 208.378906 565.808594 207.125 563.730469 205.855469 C 557.269531 201.257812 550.820312 196.613281 544.414062 191.929688 C 542.863281 190.632812 541.3125 189.324219 539.773438 188 C 535.648438 184.453125 531.5625 180.824219 527.433594 177.277344 C 538.90625 184.355469 550.265625 191.644531 561.269531 199.464844 M 616.964844 241.84375 C 616 241.230469 615.03125 240.601562 614.078125 239.992188 C 613.648438 239.621094 613.238281 239.25 612.808594 238.867188 C 614.207031 239.847656 615.585938 240.84375 616.964844 241.84375 M 553.652344 249.203125 C 542.109375 245.699219 530.59375 242.042969 519.105469 238.351562 C 524.417969 239.664062 529.726562 240.886719 535.019531 242.199219 C 555.886719 247.339844 576.597656 252.964844 597.296875 258.675781 C 611.429688 262.574219 625.523438 266.675781 639.628906 270.722656 C 639.257812 270.707031 638.816406 270.792969 638.417969 270.964844 C 627.328125 268.800781 616.3125 266.335938 605.351562 263.628906 C 587.984375 259.328125 570.761719 254.429688 553.652344 249.21875 M 352.125 257.476562 C 350.234375 259.527344 348.167969 261.792969 345.820312 263.542969 L 345.09375 262.460938 C 345.75 261.976562 346.402344 261.28125 347.074219 260.367188 C 347.160156 260.253906 347.242188 260.15625 347.328125 260.042969 C 347.359375 260.027344 347.386719 260.011719 347.398438 259.984375 C 348.824219 258.644531 350.246094 257.308594 351.65625 255.953125 C 351.65625 255.953125 351.65625 255.953125 351.671875 255.953125 C 351.671875 255.953125 351.671875 255.953125 351.671875 255.941406 C 359.457031 248.535156 367.070312 240.929688 374.503906 233.167969 C 367.042969 241.273438 359.585938 249.375 352.125 257.476562 M 340.894531 266.121094 C 340.894531 266.121094 340.894531 266.035156 340.894531 265.992188 C 340.9375 266.023438 340.964844 266.066406 341.007812 266.09375 C 340.980469 266.09375 340.9375 266.109375 340.910156 266.121094 M 302.820312 225.566406 C 303.21875 225.820312 303.601562 226.078125 303.972656 226.363281 C 306.40625 228.214844 308.457031 230.519531 310.449219 232.855469 C 308.140625 230.648438 305.824219 228.429688 303.503906 226.21875 C 303.273438 226.007812 303.046875 225.777344 302.804688 225.566406 M 538.351562 38.164062 C 537.171875 38.460938 535.902344 39.246094 534.894531 38.476562 C 535.148438 38.433594 535.390625 38.390625 535.648438 38.335938 C 538.421875 37.820312 541.183594 37.28125 543.945312 36.726562 C 542.082031 37.195312 540.214844 37.695312 538.351562 38.164062 M 654.671875 13.855469 C 656.382812 12.871094 657.746094 11.449219 657.703125 9.425781 C 659.65625 8.472656 661.660156 7.605469 663.710938 6.835938 C 660.695312 9.253906 657.664062 11.664062 654.628906 14.070312 C 654.644531 13.996094 654.660156 13.925781 654.671875 13.855469 M 516.660156 167.507812 C 519.136719 167.324219 521.613281 167.109375 524.089844 166.894531 C 522.296875 167.507812 520.515625 168.132812 518.738281 168.773438 C 518.039062 168.347656 517.355469 167.933594 516.660156 167.507812 M 336.667969 257.632812 C 336.851562 257.890625 337.039062 258.160156 337.222656 258.433594 C 336.566406 257.804688 335.914062 257.179688 335.257812 256.566406 C 335.726562 256.921875 336.199219 257.292969 336.667969 257.648438 M 654.332031 272.816406 C 654.375 272.246094 654.429688 271.675781 654.488281 271.105469 C 655.398438 271.859375 656.296875 272.613281 657.207031 273.371094 C 656.253906 273.171875 655.285156 273 654.332031 272.816406 M 596.300781 227.828125 C 596.953125 228.425781 597.609375 229.011719 598.25 229.609375 C 595.1875 227.574219 592.128906 225.507812 589.082031 223.445312 C 591.503906 224.867188 593.921875 226.320312 596.300781 227.828125 M 531.605469 164.375 C 526.125 164.945312 520.628906 165.429688 515.136719 165.828125 C 514.894531 165.839844 514.550781 165.925781 514.238281 166.054688 C 512.730469 165.144531 511.234375 164.246094 509.726562 163.335938 C 534.765625 158.792969 559.246094 154.363281 583.472656 149.964844 C 568.484375 153.382812 553.640625 157.382812 538.976562 161.984375 C 536.515625 162.75 534.054688 163.550781 531.605469 164.347656 M 539.332031 96.433594 C 537.042969 97.914062 534.734375 99.367188 532.429688 100.835938 C 529.054688 102.84375 525.667969 104.820312 522.253906 106.746094 C 521.824219 106.988281 521.855469 107.199219 522.082031 107.328125 C 519.519531 108.921875 516.957031 110.503906 514.394531 112.085938 C 518.464844 108.496094 522.566406 105.40625 526.652344 102.300781 C 555.546875 80.359375 585.265625 59.582031 615.726562 39.902344 C 615.03125 40.511719 614.347656 41.140625 613.648438 41.753906 C 601.351562 52.574219 588.554688 62.8125 575.332031 72.484375 C 563.445312 80.628906 551.460938 88.617188 539.332031 96.40625 M 488.320312 46.222656 C 502.167969 43.859375 516.046875 41.765625 529.882812 39.304688 C 522.195312 43.773438 513.425781 44.472656 504.832031 45.808594 C 503.675781 46.167969 502.511719 46.523438 501.355469 46.878906 C 500.546875 47.25 499.777344 47.789062 498.921875 48.003906 C 487.179688 50.878906 475.4375 53.769531 463.695312 56.632812 C 462.667969 56.875 461.628906 57.117188 460.605469 57.34375 C 445.671875 60.804688 430.742188 64.265625 415.808594 67.726562 C 439.082031 58.824219 463.4375 52.71875 487.519531 46.378906 C 487.792969 46.335938 488.0625 46.28125 488.332031 46.238281 M 187.179688 235.902344 C 174.511719 238.351562 161.746094 240.289062 149.003906 242.398438 C 155.992188 240.589844 162.996094 238.808594 170 237.042969 C 184.09375 234.679688 198.183594 232.359375 212.160156 229.253906 C 226.140625 226.148438 239.988281 222.574219 253.824219 218.871094 C 249.425781 220.210938 245.015625 221.519531 240.585938 222.789062 C 222.964844 227.871094 205.1875 232.429688 187.179688 235.902344 M 31.21875 268.882812 C 31.003906 268.984375 30.789062 269.082031 30.5625 269.167969 C 30.777344 269.054688 30.988281 268.941406 31.21875 268.828125 Z M 76.78125 133.074219 C 73.5625 134.085938 70.375 135.195312 67.230469 136.4375 C 65.109375 136.152344 62.972656 135.9375 60.839844 135.78125 C 66.148438 134.882812 71.472656 133.984375 76.792969 133.074219 M 163.367188 118.492188 C 162.824219 118.5625 162.300781 118.636719 161.757812 118.707031 C 162.511719 118.578125 163.253906 118.449219 163.992188 118.320312 C 163.78125 118.378906 163.566406 118.4375 163.367188 118.492188 M 177.699219 116.613281 C 177.5 116.441406 177.289062 116.257812 177.089844 116.085938 C 177.316406 116.257812 177.542969 116.429688 177.757812 116.613281 C 177.730469 116.613281 177.714844 116.613281 177.699219 116.613281 M 31.203125 271.019531 C 27.742188 272.445312 24.242188 273.769531 20.699219 274.980469 C 24.199219 273.414062 27.703125 271.847656 31.203125 270.28125 Z M 69.792969 136.847656 C 76.125 134.46875 82.617188 132.578125 89.191406 131.023438 C 94.628906 130.097656 100.054688 129.1875 105.492188 128.261719 C 112.609375 127.136719 119.726562 126.054688 126.84375 124.988281 C 132.75 124.332031 138.671875 123.734375 144.59375 123.121094 C 142.628906 123.5625 140.664062 123.988281 138.699219 124.417969 C 128.777344 126.226562 118.898438 128.019531 109.078125 129.8125 C 108.335938 129.929688 107.613281 130.042969 106.871094 130.15625 C 100.367188 131.109375 93.847656 131.9375 87.3125 132.648438 C 86.914062 132.691406 85.464844 133.046875 85.449219 133.585938 C 85.449219 133.871094 85.621094 133.984375 85.863281 134.027344 C 80.695312 134.96875 75.542969 135.910156 70.390625 136.847656 C 70.191406 136.847656 70.003906 136.847656 69.804688 136.847656 M 81.191406 233.683594 C 79.714844 234.652344 78.445312 236.289062 76.296875 235.648438 C 76.195312 236.730469 75.871094 235.820312 75.640625 235.703125 C 75.640625 236.886719 75.074219 237.8125 74.089844 238.4375 C 63.472656 245.144531 53.023438 252.136719 42.25 258.574219 C 40.128906 259.527344 38.007812 260.46875 35.859375 261.378906 C 23.488281 266.578125 10.648438 271.875 1.199219 281.757812 C 0.683594 282.285156 1.636719 282.371094 1.980469 282.355469 C 2.664062 282.328125 3.632812 282.085938 4.128906 281.574219 C 12.03125 273.3125 22.40625 268.414062 32.78125 264 C 32.269531 264.285156 31.757812 264.570312 31.246094 264.855469 L 31.246094 267.375 C 23.660156 271.433594 16 275.390625 8.285156 279.207031 C 7.84375 279.421875 7.347656 279.792969 7.914062 280.121094 C 8.472656 280.449219 9.667969 279.949219 10.164062 279.734375 C 10.820312 279.4375 11.488281 279.152344 12.144531 278.851562 C 13.609375 278.453125 15.074219 278.027344 16.527344 277.585938 C 21.4375 276.175781 26.335938 274.75 31.246094 273.339844 L 31.246094 274.835938 C 32.867188 274.394531 34.476562 273.953125 36.097656 273.511719 C 33.296875 274.523438 30.476562 275.546875 27.671875 276.558594 C 25.496094 277.355469 23.316406 278.140625 21.152344 278.9375 C 20.597656 279.136719 19.914062 279.820312 20.34375 280.417969 C 20.796875 281.058594 21.921875 280.773438 22.492188 280.5625 C 33.179688 276.671875 43.871094 272.800781 54.617188 269.070312 C 54.859375 269.269531 55.046875 269.566406 55.1875 269.925781 C 55.300781 269.453125 55.488281 269.039062 55.714844 268.683594 C 60.226562 267.117188 64.753906 265.59375 69.292969 264.101562 C 70.148438 263.929688 71 263.800781 71.855469 263.785156 C 75.355469 263.757812 77.707031 259.542969 81.308594 261.933594 C 81.578125 261.734375 81.875 261.664062 82.191406 261.722656 C 83 260.285156 84.152344 259.484375 85.433594 258.988281 C 85.976562 258.832031 86.515625 258.660156 87.058594 258.488281 C 88.339844 258.191406 89.648438 258.019531 90.828125 257.71875 C 101.546875 254.914062 112.265625 252.082031 122.984375 249.277344 C 124.207031 249.019531 125.433594 248.75 126.65625 248.507812 C 144.804688 244.847656 163.167969 242.398438 181.386719 239.09375 C 199.351562 235.832031 217.085938 231.5625 234.652344 226.632812 C 252.214844 221.707031 269.609375 216.195312 286.976562 210.628906 C 288.769531 211.195312 290.40625 212.265625 292.058594 213.886719 C 294.535156 216.308594 297.011719 218.714844 299.503906 221.121094 C 299.347656 221.050781 299.203125 220.980469 299.046875 220.910156 C 298.277344 220.554688 297.507812 220.183594 296.742188 219.785156 C 294.464844 217.605469 292.1875 215.425781 289.910156 213.246094 C 289.367188 212.734375 286.433594 213.375 286.804688 214.273438 C 288.171875 217.605469 290.890625 219.554688 293.9375 221.152344 C 307.703125 234.308594 321.480469 247.453125 335.246094 260.609375 L 337.878906 263.132812 C 337.636719 264.597656 337.566406 266.109375 337.734375 267.660156 C 337.792969 268.128906 338.832031 268.058594 339.085938 268.015625 C 340.140625 267.832031 341.152344 267.546875 342.132812 267.203125 C 344.355469 269.324219 346.589844 271.460938 348.808594 273.582031 C 349.449219 274.195312 352.453125 273.339844 351.8125 272.402344 C 350.117188 269.910156 348.441406 267.417969 346.746094 264.925781 C 348.441406 263.828125 350.035156 262.546875 351.527344 261.109375 C 355.554688 257.234375 359.199219 252.949219 362.972656 248.847656 C 371.3125 239.761719 379.667969 230.691406 388.054688 221.636719 C 390.699219 218.773438 393.335938 215.925781 395.980469 213.0625 C 400.082031 210.953125 404.691406 210.429688 411.125 212.078125 C 435.011719 218.230469 459.195312 223.34375 483.179688 229.238281 C 487.4375 230.605469 491.707031 231.988281 495.960938 233.367188 C 512.785156 238.824219 529.597656 244.277344 546.492188 249.476562 C 563.347656 254.660156 580.300781 259.585938 597.378906 263.957031 C 614.449219 268.328125 631.671875 272.144531 649.035156 275.121094 C 651.257812 275.507812 653.476562 275.863281 655.699219 276.21875 C 656.351562 276.316406 657.136719 276.21875 657.703125 275.804688 C 658.914062 276.074219 660.125 276.347656 661.320312 276.644531 C 661.875 276.789062 664.835938 275.960938 663.769531 275.066406 C 660.679688 272.472656 657.578125 269.894531 654.460938 267.332031 C 654.117188 265.679688 653.191406 264.128906 650.945312 262.789062 C 648.296875 261.222656 645.648438 259.640625 643.015625 258.046875 C 630.21875 247.851562 617.09375 238.054688 603.375 229.109375 C 601.976562 228.199219 600.582031 227.316406 599.175781 226.433594 C 596.910156 224.355469 594.632812 222.304688 592.339844 220.269531 C 576.03125 205.871094 558.136719 193.410156 539.789062 181.777344 C 534.152344 178.203125 528.472656 174.699219 522.765625 171.222656 C 538.691406 168.089844 554.535156 164.574219 570.277344 160.628906 C 585.90625 157.78125 601.410156 154.222656 616.695312 149.949219 C 621.039062 148.738281 625.363281 147.457031 629.679688 146.117188 C 631.128906 146.460938 632.582031 146.800781 634.035156 147.144531 C 634.746094 147.316406 635.640625 147.042969 636.28125 146.730469 C 636.625 146.558594 637.335938 146.132812 636.679688 145.890625 C 635.714844 145.535156 634.730469 145.179688 633.761719 144.824219 C 637.476562 143.640625 641.179688 142.429688 644.851562 141.175781 C 645.308594 141.019531 646.289062 140.679688 646.230469 140.023438 C 646.175781 139.398438 645.320312 139.355469 644.835938 139.410156 C 641.09375 139.851562 637.363281 140.335938 633.621094 140.851562 C 633.59375 140.609375 633.5625 140.367188 633.535156 140.125 C 622.761719 138.171875 611.984375 136.207031 601.222656 134.257812 C 596.183594 132.832031 591.132812 131.480469 586.035156 130.226562 C 569.039062 126.070312 551.789062 122.964844 534.394531 121.027344 C 532.613281 120.828125 530.820312 120.65625 529.042969 120.488281 C 524.34375 119.375 519.632812 118.265625 514.9375 117.15625 C 513.542969 116.828125 511.960938 116.542969 510.4375 116.101562 C 518.523438 111.1875 526.566406 106.203125 534.550781 101.132812 C 549.582031 92.207031 564.1875 82.566406 578.292969 72.242188 C 597.167969 59.296875 615.742188 45.910156 633.976562 32.082031 C 645.664062 23.226562 657.207031 14.183594 668.621094 4.96875 C 669.417969 4.328125 667.226562 4.527344 667.042969 4.585938 C 663.582031 5.609375 660.296875 6.921875 657.105469 8.429688 C 656.808594 8.359375 656.480469 8.34375 656.296875 8.359375 C 655.625 8.402344 654.945312 8.457031 654.273438 8.5 C 654.246094 8.386719 654.203125 8.257812 654.160156 8.144531 C 653.121094 4.914062 649.832031 7.703125 647.640625 8.203125 C 646.601562 8.445312 645.5625 8.742188 644.523438 9.042969 C 643.882812 8.773438 642.972656 9.054688 642.445312 9.398438 C 642.375 9.441406 642.304688 9.484375 642.234375 9.527344 C 613.492188 12.488281 585.152344 18.683594 557.15625 25.804688 C 557.199219 25.417969 557.226562 25.019531 557.28125 24.636719 L 557.125 24.519531 C 555.875 24.722656 555.121094 25.53125 554.722656 26.429688 C 553.980469 26.628906 553.226562 26.8125 552.484375 27 C 535.261719 31.441406 518.109375 36.128906 500.929688 40.726562 C 496.332031 41.964844 491.734375 43.191406 487.121094 44.414062 C 472.960938 46.851562 458.839844 49.597656 445.003906 53.445312 C 430.511719 57.472656 416.320312 62.742188 403.085938 69.90625 C 396.324219 63.425781 389.5625 56.960938 382.84375 50.453125 C 380.183594 47.890625 377.546875 45.296875 374.957031 42.648438 C 374.660156 42.277344 374.359375 41.910156 374.0625 41.539062 C 376.082031 43.617188 378.117188 45.683594 380.179688 47.71875 C 381.148438 48.671875 384.179688 47.390625 383.128906 46.351562 C 371.527344 34.929688 360.667969 22.785156 350.589844 9.996094 C 351.15625 9.355469 351.726562 8.730469 352.28125 8.074219 C 353.621094 6.535156 350.558594 5.980469 349.59375 7.089844 C 349.363281 7.347656 349.136719 7.605469 348.910156 7.859375 C 348.667969 7.546875 348.410156 7.234375 348.167969 6.921875 C 347.457031 5.996094 344.722656 6.707031 345.09375 8.03125 C 345.378906 9.054688 345.734375 10.054688 346.105469 11.035156 C 332.15625 26.730469 317.195312 41.480469 302.007812 55.964844 C 297.679688 60.09375 293.339844 64.195312 288.984375 68.296875 C 287.632812 69.234375 286.25 70.132812 284.839844 70.988281 C 284.085938 71.03125 283.304688 70.988281 282.476562 70.859375 C 295.445312 59.253906 308.425781 47.648438 321.394531 36.027344 C 321.90625 35.570312 321.75 35.214844 321.136719 35.046875 C 320.484375 34.875 319.375 35.203125 318.875 35.65625 C 306.0625 47.121094 293.253906 58.585938 280.441406 70.046875 L 279.089844 69.507812 C 278.75 69.363281 278.222656 69.421875 277.878906 69.507812 C 277.753906 69.550781 277.609375 69.59375 277.46875 69.664062 C 249.199219 62.5 220.660156 56.417969 192.363281 49.371094 C 165.273438 42.636719 138.242188 35.699219 111.296875 28.496094 C 118.613281 29.804688 125.875 31.257812 133.121094 32.996094 C 141.957031 35.101562 150.769531 37.378906 159.582031 39.601562 C 177.417969 44.101562 195.265625 48.601562 213.117188 53.085938 C 233.101562 58.128906 253.085938 63.15625 273.070312 68.195312 C 273.796875 68.382812 274.804688 68.125 275.332031 67.582031 C 275.816406 67.101562 275.703125 66.542969 275.003906 66.375 C 257.070312 61.859375 239.136719 57.332031 221.214844 52.816406 C 203.378906 48.316406 185.53125 43.816406 167.679688 39.332031 C 150.042969 34.886719 132.4375 29.976562 114.5 26.855469 C 105.859375 25.347656 97.234375 23.964844 88.765625 21.714844 C 80.722656 19.578125 72.835938 16.945312 64.964844 14.253906 C 52.027344 9.925781 39.089844 5.3125 25.722656 2.546875 C 25.625 2.449219 25.507812 2.347656 25.410156 2.234375 C 25.238281 2.050781 24.667969 2.078125 24.070312 2.222656 C 21.679688 1.75 19.289062 1.351562 16.867188 1.011719 C 14.863281 0.753906 12.855469 0.527344 10.832031 0.339844 C 10.191406 0.285156 7.601562 1.296875 8.953125 2.105469 C 15.628906 6.066406 22.5625 9.570312 29.695312 12.601562 C 30.191406 12.902344 30.691406 13.199219 31.1875 13.5 L 31.1875 15.890625 C 53.609375 29.277344 75.585938 43.289062 97.277344 58 C 101.5625 61.675781 105.847656 65.332031 110.203125 68.9375 C 121.363281 78.179688 132.664062 87.25 144.121094 96.121094 C 152.804688 102.855469 161.585938 109.464844 170.441406 115.972656 C 153.945312 118.761719 137.445312 121.554688 120.949219 124.34375 C 111.128906 125.542969 101.347656 127.023438 91.699219 129.160156 C 86.914062 129.941406 82.132812 130.726562 77.351562 131.535156 C 69.59375 132.847656 61.835938 134.199219 54.089844 135.582031 C 52.367188 135.582031 50.660156 135.636719 48.9375 135.753906 C 48.355469 135.792969 47.542969 136.277344 47.257812 136.792969 C 46.761719 136.878906 46.261719 136.960938 45.765625 137.0625 C 45.367188 137.132812 43.929688 137.433594 43.898438 138.003906 C 43.871094 138.613281 44.8125 138.5 45.210938 138.429688 C 46.148438 138.273438 47.089844 138.117188 48.042969 137.945312 C 49.808594 138.628906 51.570312 139.269531 53.351562 139.925781 C 52.980469 139.996094 52.609375 140.066406 52.242188 140.125 C 52.210938 140.367188 52.199219 140.621094 52.167969 140.878906 C 54.847656 141.363281 57.523438 141.847656 60.199219 142.332031 C 73.648438 146.886719 87.398438 150.578125 101.335938 153.339844 C 110.488281 155.148438 119.726562 156.585938 129.003906 157.609375 C 130.925781 157.824219 132.835938 157.996094 134.757812 158.152344 C 139.070312 159.417969 143.398438 160.660156 147.738281 161.839844 C 156.109375 164.132812 164.503906 166.269531 172.933594 168.304688 C 170.78125 170.058594 168.578125 171.410156 166.554688 172.960938 C 138.839844 194.238281 110.457031 214.585938 81.179688 233.640625 " fill-opacity="1" fill-rule="nonzero"/></g></g></g></g><g mask="url(#194efa861d)"><g transform="matrix(1, 0, 0, 1, 0, 99)"><g clip-path="url(#c6a2ec9518)"><g clip-path="url(#7e1f7db31e)"><path fill="#faedcb" d="M -109.832031 160.914062 C -107.011719 161.085938 -104.179688 161.269531 -101.363281 161.46875 C -95.371094 162.550781 -89.347656 163.648438 -83.328125 164.730469 C -82.1875 165.257812 -81.0625 165.785156 -79.9375 166.324219 C -80.480469 167.007812 -81.035156 167.664062 -81.605469 168.246094 C -91.054688 165.96875 -100.464844 163.519531 -109.84375 160.914062 M -175.238281 148.082031 C -163.707031 150.175781 -152.164062 152.269531 -140.589844 154.363281 C -138.46875 155.03125 -136.347656 155.703125 -134.226562 156.355469 C -148.0625 154.492188 -161.773438 151.730469 -175.25 148.082031 M -201.753906 139.667969 C -200.84375 139.667969 -199.949219 139.710938 -199.035156 139.753906 C -199.222656 140.238281 -199.023438 140.75 -198.269531 140.890625 C -198.28125 140.890625 -198.296875 140.890625 -198.3125 140.890625 C -199.464844 140.492188 -200.601562 140.066406 -201.742188 139.652344 M -133.800781 77.679688 C -132.519531 78.589844 -131.238281 79.503906 -129.957031 80.429688 C -122.441406 86.210938 -115 92.078125 -107.652344 98.070312 C -105.6875 99.667969 -103.738281 101.289062 -101.789062 102.898438 C -112.59375 94.65625 -123.269531 86.253906 -133.800781 77.679688 M -233.882812 6.078125 C -233.425781 6.890625 -232.941406 7.675781 -232.414062 8.429688 C -233.46875 7.816406 -234.523438 7.191406 -235.574219 6.578125 C -236.074219 6.277344 -236.914062 6.519531 -237.46875 6.71875 C -238.609375 6.121094 -239.730469 5.511719 -240.855469 4.882812 C -238.507812 5.226562 -236.1875 5.625 -233.867188 6.09375 M -220.429688 9.371094 C -222.082031 9.070312 -223.761719 8.898438 -225.496094 8.957031 L -225.496094 9.613281 C -226.335938 8.886719 -227.164062 8.160156 -227.972656 7.402344 C -225.441406 8.015625 -222.9375 8.671875 -220.429688 9.382812 M -50.203125 230.09375 C -25.566406 224.355469 -0.941406 218.558594 23.628906 212.492188 C 23.714844 212.464844 23.785156 212.464844 23.871094 212.449219 C 20.113281 213.660156 16.339844 214.84375 12.570312 216.039062 C 12.398438 215.554688 11.101562 215.867188 10.832031 215.9375 C -5.738281 220.425781 -22.304688 224.910156 -39.03125 228.785156 C -49.863281 231.289062 -60.75 233.355469 -71.667969 235.25 C -64.523438 233.496094 -57.363281 231.773438 -50.191406 230.09375 M 100.308594 29.363281 C 106.898438 38.277344 115.039062 46.050781 122.042969 54.683594 C 112.40625 45.582031 102.871094 36.367188 93.773438 26.714844 C 92.195312 25.960938 91.113281 24.320312 89.972656 22.910156 C 90.414062 22.457031 90.871094 22.015625 91.3125 21.558594 C 91.851562 21.003906 90.84375 20.777344 90.484375 20.761719 C 89.816406 20.761719 89.089844 21.003906 88.566406 21.429688 C 87.867188 20.859375 87.085938 20.503906 86.128906 20.519531 C 87.609375 18.925781 89.078125 17.316406 90.527344 15.691406 C 92.964844 20.746094 96.492188 25.160156 100.308594 29.363281 M 203.347656 53.65625 C 200.003906 54.582031 196.660156 55.507812 193.3125 56.460938 C 183.363281 59.296875 173.457031 62.371094 163.707031 65.859375 C 170.566406 63.011719 177.585938 60.578125 184.714844 58.46875 C 190.878906 56.648438 197.101562 55.082031 203.347656 53.65625 M 297.734375 30.417969 C 297.890625 32.226562 297.636719 33.5625 297.109375 34.558594 C 292.328125 35.570312 287.53125 36.554688 282.71875 37.492188 C 271.929688 39.585938 261.082031 41.339844 250.25 43.089844 C 266.050781 38.804688 281.863281 34.460938 297.734375 30.417969 M 372.324219 15.09375 C 366.214844 16.746094 360.179688 18.695312 353.960938 20.050781 C 346.757812 21.601562 340.011719 25.320312 332.210938 24.476562 C 330.261719 24.265625 328.667969 25.046875 327.484375 26.699219 C 326.988281 27.398438 326.390625 27.925781 325.675781 28.28125 C 324.765625 28.492188 323.839844 28.695312 322.929688 28.894531 C 320.878906 29.136719 318.902344 29.632812 316.953125 30.230469 C 311.214844 31.511719 305.480469 32.78125 299.726562 34.003906 C 299.101562 32.867188 299.273438 31.355469 299.742188 29.917969 C 313.519531 26.429688 327.355469 23.167969 341.277344 20.363281 C 351.570312 18.285156 361.929688 16.503906 372.324219 15.109375 M 346.941406 54.539062 C 346.6875 54.726562 346.429688 54.910156 346.175781 55.09375 C 348.980469 52.789062 351.78125 50.453125 354.542969 48.089844 C 359.140625 44.144531 363.625 40.070312 368.125 36.011719 C 374.671875 31.839844 381.261719 27.710938 387.964844 23.792969 C 374.472656 34.277344 360.808594 44.558594 346.957031 54.554688 M 317.792969 131.335938 C 307.484375 129.472656 297.167969 127.59375 286.859375 125.726562 C 290.605469 126.253906 294.347656 126.824219 298.089844 127.464844 C 304.695312 128.589844 311.273438 129.882812 317.804688 131.335938 M 372.648438 145.164062 C 374.828125 144.851562 377.003906 144.550781 379.183594 144.265625 C 377.601562 144.78125 376.007812 145.292969 374.414062 145.792969 C 373.832031 145.578125 373.234375 145.378906 372.648438 145.164062 M 348.066406 153.253906 C 351.710938 152.199219 355.355469 151.117188 359 150.007812 C 359.484375 149.863281 360.566406 149.421875 360.378906 148.738281 C 360.195312 148.070312 359.011719 148.199219 358.542969 148.324219 C 343.554688 152.867188 328.453125 157.039062 313.265625 160.84375 C 304.640625 162.410156 295.96875 163.761719 287.273438 164.875 C 286.105469 165.03125 284.925781 165.15625 283.757812 165.300781 C 291.03125 163.035156 298.332031 160.898438 305.691406 158.921875 C 322.886719 154.308594 340.28125 150.476562 357.832031 147.484375 C 360.351562 147.058594 362.855469 146.644531 365.375 146.246094 C 366.800781 146.574219 368.207031 146.917969 369.632812 147.242188 C 362.488281 149.394531 355.285156 151.386719 348.054688 153.238281 M 277.550781 169.046875 C 273.210938 169.957031 268.855469 170.824219 264.5 171.664062 C 268.015625 170.425781 271.542969 169.230469 275.074219 168.0625 C 280.269531 167.523438 285.453125 166.894531 290.632812 166.199219 C 286.277344 167.179688 281.921875 168.132812 277.550781 169.046875 M 304.554688 201.34375 C 312.980469 207.324219 321.164062 213.617188 329.023438 220.339844 C 323.796875 217.347656 318.546875 214.429688 313.308594 211.453125 C 311.1875 210.257812 309.09375 209.003906 307.015625 207.734375 C 300.554688 203.136719 294.105469 198.496094 287.699219 193.808594 C 286.148438 192.511719 284.597656 191.203125 283.058594 189.878906 C 278.933594 186.332031 274.847656 182.703125 270.71875 179.15625 C 282.191406 186.234375 293.550781 193.523438 304.554688 201.34375 M 360.25 243.722656 C 359.285156 243.109375 358.316406 242.484375 357.363281 241.871094 C 356.933594 241.5 356.523438 241.128906 356.09375 240.746094 C 357.492188 241.726562 358.871094 242.726562 360.25 243.722656 M 296.9375 251.082031 C 285.394531 247.582031 273.878906 243.921875 262.390625 240.234375 C 267.703125 241.542969 273.011719 242.765625 278.304688 244.078125 C 299.171875 249.21875 319.882812 254.84375 340.582031 260.554688 C 354.714844 264.457031 368.804688 268.554688 382.914062 272.601562 C 382.542969 272.585938 382.101562 272.671875 381.703125 272.84375 C 370.613281 270.679688 359.597656 268.214844 348.636719 265.507812 C 331.269531 261.207031 314.046875 256.308594 296.9375 251.097656 M 95.410156 259.355469 C 93.519531 261.40625 91.453125 263.671875 89.105469 265.421875 L 88.378906 264.339844 C 89.035156 263.855469 89.6875 263.160156 90.359375 262.25 C 90.445312 262.132812 90.527344 262.035156 90.613281 261.921875 C 90.644531 261.90625 90.671875 261.890625 90.683594 261.863281 C 92.109375 260.523438 93.53125 259.1875 94.941406 257.832031 C 94.941406 257.832031 94.941406 257.832031 94.957031 257.832031 C 94.957031 257.832031 94.957031 257.832031 94.957031 257.820312 C 102.742188 250.414062 110.355469 242.808594 117.789062 235.050781 C 110.328125 243.152344 102.871094 251.253906 95.410156 259.355469 M 84.179688 268 C 84.179688 268 84.179688 267.914062 84.179688 267.871094 C 84.222656 267.902344 84.25 267.945312 84.292969 267.972656 C 84.265625 267.972656 84.222656 267.988281 84.195312 268 M 46.105469 227.445312 C 46.503906 227.703125 46.886719 227.957031 47.257812 228.242188 C 49.691406 230.09375 51.742188 232.402344 53.734375 234.734375 C 51.425781 232.527344 49.105469 230.308594 46.789062 228.101562 C 46.558594 227.886719 46.332031 227.660156 46.089844 227.445312 M 281.636719 40.042969 C 280.457031 40.34375 279.1875 41.125 278.179688 40.355469 C 278.433594 40.3125 278.675781 40.269531 278.933594 40.214844 C 281.707031 39.699219 284.46875 39.160156 287.230469 38.605469 C 285.367188 39.074219 283.5 39.574219 281.636719 40.042969 M 397.957031 15.734375 C 399.667969 14.753906 401.03125 13.328125 400.988281 11.304688 C 402.941406 10.351562 404.945312 9.484375 406.996094 8.714844 C 403.980469 11.136719 400.949219 13.542969 397.914062 15.949219 C 397.929688 15.878906 397.945312 15.804688 397.957031 15.734375 M 259.945312 169.386719 C 262.421875 169.203125 264.898438 168.988281 267.375 168.773438 C 265.582031 169.386719 263.800781 170.015625 262.023438 170.65625 C 261.324219 170.226562 260.640625 169.816406 259.945312 169.386719 M 79.953125 259.515625 C 80.136719 259.769531 80.324219 260.039062 80.507812 260.3125 C 79.851562 259.683594 79.199219 259.058594 78.542969 258.445312 C 79.011719 258.800781 79.484375 259.171875 79.953125 259.527344 M 397.617188 274.695312 C 397.660156 274.125 397.714844 273.554688 397.773438 272.984375 C 398.683594 273.738281 399.582031 274.496094 400.492188 275.25 C 399.539062 275.050781 398.570312 274.878906 397.617188 274.695312 M 339.582031 229.710938 C 340.238281 230.308594 340.894531 230.890625 341.535156 231.488281 C 338.472656 229.453125 335.414062 227.386719 332.367188 225.324219 C 334.785156 226.746094 337.207031 228.199219 339.582031 229.710938 M 274.890625 166.253906 C 269.410156 166.824219 263.914062 167.308594 258.421875 167.707031 C 258.179688 167.722656 257.835938 167.804688 257.523438 167.933594 C 256.015625 167.023438 254.519531 166.125 253.011719 165.214844 C 278.050781 160.671875 302.53125 156.242188 326.757812 151.84375 C 311.769531 155.261719 296.925781 159.261719 282.261719 163.863281 C 279.800781 164.632812 277.339844 165.429688 274.890625 166.226562 M 282.617188 98.3125 C 280.328125 99.796875 278.019531 101.246094 275.714844 102.714844 C 272.339844 104.722656 268.953125 106.703125 265.539062 108.625 C 265.109375 108.867188 265.140625 109.078125 265.367188 109.207031 C 262.804688 110.804688 260.242188 112.382812 257.679688 113.964844 C 261.75 110.375 265.851562 107.285156 269.9375 104.179688 C 298.832031 82.238281 328.550781 61.460938 359.011719 41.78125 C 358.316406 42.390625 357.632812 43.019531 356.933594 43.632812 C 344.636719 54.453125 331.839844 64.691406 318.617188 74.363281 C 306.730469 82.507812 294.746094 90.496094 282.617188 98.285156 M 231.605469 48.101562 C 245.453125 45.738281 259.332031 43.644531 273.167969 41.183594 C 265.480469 45.652344 256.710938 46.351562 248.113281 47.691406 C 246.960938 48.046875 245.796875 48.402344 244.640625 48.757812 C 243.832031 49.128906 243.0625 49.667969 242.207031 49.882812 C 230.464844 52.757812 218.722656 55.648438 206.976562 58.511719 C 205.953125 58.753906 204.914062 58.996094 203.890625 59.222656 C 188.957031 62.683594 174.027344 66.144531 159.09375 69.605469 C 182.367188 60.707031 206.722656 54.597656 230.804688 48.257812 C 231.078125 48.21875 231.347656 48.160156 231.617188 48.117188 M -69.535156 237.785156 C -82.203125 240.234375 -94.96875 242.167969 -107.710938 244.277344 C -100.722656 242.46875 -93.71875 240.6875 -86.714844 238.921875 C -72.621094 236.558594 -58.53125 234.238281 -44.554688 231.132812 C -30.574219 228.027344 -16.726562 224.453125 -2.890625 220.75 C -7.289062 222.089844 -11.699219 223.402344 -16.128906 224.667969 C -33.75 229.75 -51.527344 234.308594 -69.535156 237.785156 M -225.496094 270.765625 C -225.710938 270.863281 -225.925781 270.964844 -226.152344 271.046875 C -225.9375 270.933594 -225.726562 270.820312 -225.496094 270.707031 Z M -179.933594 134.953125 C -183.152344 135.964844 -186.339844 137.074219 -189.484375 138.316406 C -191.605469 138.03125 -193.742188 137.816406 -195.875 137.660156 C -190.566406 136.761719 -185.242188 135.867188 -179.921875 134.953125 M -93.347656 120.371094 C -93.890625 120.445312 -94.414062 120.515625 -94.957031 120.585938 C -94.203125 120.457031 -93.460938 120.328125 -92.722656 120.203125 C -92.933594 120.257812 -93.148438 120.316406 -93.347656 120.371094 M -79.015625 118.492188 C -79.214844 118.320312 -79.425781 118.136719 -79.625 117.964844 C -79.398438 118.136719 -79.171875 118.308594 -78.957031 118.492188 C -78.984375 118.492188 -79 118.492188 -79.015625 118.492188 M -225.511719 272.898438 C -228.972656 274.324219 -232.472656 275.648438 -236.015625 276.859375 C -232.515625 275.292969 -229.011719 273.726562 -225.511719 272.160156 Z M -186.921875 138.726562 C -180.589844 136.351562 -174.097656 134.457031 -167.523438 132.902344 C -162.085938 131.976562 -156.660156 131.066406 -151.222656 130.140625 C -144.105469 129.015625 -136.988281 127.933594 -129.871094 126.867188 C -123.964844 126.210938 -118.042969 125.613281 -112.121094 125 C -114.085938 125.441406 -116.050781 125.867188 -118.015625 126.296875 C -127.9375 128.105469 -137.816406 129.898438 -147.636719 131.691406 C -148.378906 131.808594 -149.101562 131.921875 -149.84375 132.035156 C -156.347656 132.988281 -162.867188 133.816406 -169.402344 134.527344 C -169.800781 134.570312 -171.25 134.925781 -171.265625 135.46875 C -171.265625 135.75 -171.09375 135.867188 -170.851562 135.910156 C -176.019531 136.847656 -181.171875 137.789062 -186.324219 138.726562 C -186.523438 138.726562 -186.710938 138.726562 -186.910156 138.726562 M -175.523438 235.5625 C -177.003906 236.53125 -178.269531 238.167969 -180.417969 237.527344 C -180.519531 238.609375 -180.84375 237.699219 -181.074219 237.582031 C -181.074219 238.765625 -181.640625 239.691406 -182.625 240.316406 C -193.242188 247.023438 -203.691406 254.015625 -214.464844 260.453125 C -216.585938 261.40625 -218.707031 262.347656 -220.859375 263.257812 C -233.226562 268.457031 -246.066406 273.753906 -255.519531 283.636719 C -256.03125 284.164062 -255.078125 284.25 -254.734375 284.234375 C -254.050781 284.207031 -253.082031 283.964844 -252.585938 283.453125 C -244.683594 275.191406 -234.308594 270.292969 -223.933594 265.878906 C -224.445312 266.164062 -224.957031 266.449219 -225.46875 266.734375 L -225.46875 269.253906 C -233.054688 273.3125 -240.714844 277.273438 -248.429688 281.089844 C -248.871094 281.300781 -249.367188 281.671875 -248.800781 282 C -248.242188 282.328125 -247.046875 281.828125 -246.550781 281.613281 C -245.894531 281.316406 -245.226562 281.03125 -244.570312 280.730469 C -243.105469 280.332031 -241.640625 279.90625 -240.1875 279.464844 C -235.277344 278.054688 -230.378906 276.628906 -225.46875 275.222656 L -225.46875 276.714844 C -223.847656 276.273438 -222.238281 275.832031 -220.617188 275.390625 C -223.417969 276.402344 -226.238281 277.429688 -229.042969 278.4375 C -231.21875 279.238281 -233.398438 280.019531 -235.5625 280.816406 C -236.117188 281.015625 -236.800781 281.699219 -236.371094 282.296875 C -235.917969 282.9375 -234.792969 282.65625 -234.222656 282.441406 C -223.535156 278.554688 -212.84375 274.679688 -202.097656 270.949219 C -201.855469 271.148438 -201.667969 271.449219 -201.527344 271.804688 C -201.414062 271.332031 -201.230469 270.921875 -201 270.5625 C -196.488281 268.996094 -191.960938 267.472656 -187.421875 265.980469 C -186.566406 265.808594 -185.714844 265.679688 -184.859375 265.664062 C -181.359375 265.636719 -179.007812 261.421875 -175.40625 263.816406 C -175.136719 263.613281 -174.839844 263.542969 -174.523438 263.601562 C -173.714844 262.164062 -172.5625 261.363281 -171.28125 260.867188 C -170.738281 260.710938 -170.199219 260.539062 -169.65625 260.367188 C -168.375 260.070312 -167.066406 259.898438 -165.886719 259.597656 C -155.167969 256.792969 -144.449219 253.960938 -133.730469 251.15625 C -132.507812 250.898438 -131.28125 250.628906 -130.058594 250.386719 C -111.910156 246.726562 -93.546875 244.277344 -75.328125 240.972656 C -57.363281 237.710938 -39.628906 233.441406 -22.0625 228.511719 C -4.5 223.585938 12.894531 218.074219 30.261719 212.507812 C 32.054688 213.078125 33.691406 214.144531 35.34375 215.769531 C 37.820312 218.1875 40.296875 220.59375 42.789062 223 C 42.632812 222.929688 42.488281 222.859375 42.332031 222.789062 C 41.5625 222.433594 40.792969 222.0625 40.027344 221.664062 C 37.75 219.484375 35.472656 217.304688 33.195312 215.128906 C 32.652344 214.613281 29.71875 215.253906 30.089844 216.152344 C 31.457031 219.484375 34.175781 221.433594 37.222656 223.03125 C 50.988281 236.1875 64.765625 249.332031 78.53125 262.488281 L 81.164062 265.011719 C 80.921875 266.476562 80.851562 267.988281 81.019531 269.539062 C 81.078125 270.007812 82.117188 269.9375 82.371094 269.894531 C 83.425781 269.710938 84.4375 269.425781 85.417969 269.082031 C 87.640625 271.207031 89.875 273.339844 92.09375 275.464844 C 92.734375 276.074219 95.738281 275.222656 95.097656 274.28125 C 93.402344 271.789062 91.722656 269.296875 90.03125 266.804688 C 91.722656 265.707031 93.320312 264.425781 94.8125 262.988281 C 98.839844 259.113281 102.484375 254.828125 106.257812 250.726562 C 114.597656 241.640625 122.953125 232.570312 131.339844 223.515625 C 133.984375 220.652344 136.617188 217.804688 139.265625 214.941406 C 143.367188 212.835938 147.976562 212.308594 154.410156 213.960938 C 178.296875 220.109375 202.480469 225.222656 226.464844 231.117188 C 230.722656 232.484375 234.992188 233.867188 239.246094 235.25 C 256.070312 240.703125 272.882812 246.15625 289.777344 251.355469 C 306.632812 256.539062 323.585938 261.464844 340.664062 265.835938 C 357.734375 270.207031 374.957031 274.023438 392.320312 277 C 394.542969 277.386719 396.761719 277.742188 398.984375 278.097656 C 399.636719 278.195312 400.421875 278.097656 400.988281 277.683594 C 402.199219 277.957031 403.410156 278.226562 404.605469 278.523438 C 405.160156 278.667969 408.121094 277.839844 407.054688 276.945312 C 403.964844 274.351562 400.863281 271.773438 397.746094 269.210938 C 397.402344 267.558594 396.476562 266.007812 394.230469 264.667969 C 391.582031 263.101562 388.933594 261.523438 386.300781 259.925781 C 373.503906 249.730469 360.378906 239.933594 346.660156 230.992188 C 345.261719 230.078125 343.867188 229.195312 342.460938 228.3125 C 340.195312 226.234375 337.917969 224.183594 335.625 222.148438 C 319.316406 207.75 301.421875 195.289062 283.074219 183.65625 C 277.4375 180.082031 271.757812 176.578125 266.050781 173.105469 C 281.976562 169.972656 297.820312 166.453125 313.5625 162.507812 C 329.191406 159.660156 344.695312 156.101562 359.980469 151.828125 C 364.324219 150.617188 368.648438 149.335938 372.964844 148 C 374.414062 148.339844 375.867188 148.683594 377.320312 149.023438 C 378.03125 149.195312 378.925781 148.925781 379.566406 148.609375 C 379.910156 148.441406 380.621094 148.011719 379.964844 147.769531 C 379 147.414062 378.015625 147.058594 377.046875 146.703125 C 380.761719 145.519531 384.464844 144.308594 388.136719 143.058594 C 388.59375 142.898438 389.574219 142.558594 389.515625 141.902344 C 389.460938 141.277344 388.605469 141.234375 388.121094 141.292969 C 384.378906 141.734375 380.648438 142.21875 376.90625 142.730469 C 376.878906 142.488281 376.847656 142.246094 376.820312 142.003906 C 366.046875 140.050781 355.269531 138.085938 344.507812 136.136719 C 339.46875 134.710938 334.417969 133.359375 329.320312 132.105469 C 312.324219 127.949219 295.074219 124.84375 277.679688 122.90625 C 275.898438 122.707031 274.105469 122.535156 272.328125 122.367188 C 267.628906 121.253906 262.917969 120.144531 258.222656 119.035156 C 256.828125 118.707031 255.246094 118.421875 253.722656 117.980469 C 261.808594 113.066406 269.851562 108.082031 277.835938 103.011719 C 292.867188 94.085938 307.472656 84.445312 321.578125 74.121094 C 340.453125 61.175781 359.027344 47.789062 377.261719 33.960938 C 388.949219 25.105469 400.492188 16.0625 411.90625 6.847656 C 412.703125 6.207031 410.511719 6.40625 410.328125 6.464844 C 406.867188 7.488281 403.582031 8.800781 400.390625 10.308594 C 400.09375 10.238281 399.765625 10.222656 399.582031 10.238281 C 398.910156 10.28125 398.230469 10.335938 397.558594 10.378906 C 397.53125 10.265625 397.488281 10.136719 397.445312 10.023438 C 396.40625 6.792969 393.117188 9.582031 390.925781 10.082031 C 389.886719 10.324219 388.847656 10.621094 387.808594 10.921875 C 387.167969 10.652344 386.257812 10.9375 385.730469 11.277344 C 385.660156 11.320312 385.589844 11.363281 385.515625 11.40625 C 356.777344 14.367188 328.4375 20.5625 300.441406 27.683594 C 300.484375 27.296875 300.511719 26.898438 300.566406 26.515625 L 300.410156 26.402344 C 299.160156 26.601562 298.40625 27.410156 298.007812 28.308594 C 297.265625 28.507812 296.511719 28.695312 295.769531 28.878906 C 278.546875 33.320312 261.394531 38.007812 244.214844 42.605469 C 239.617188 43.84375 235.019531 45.070312 230.40625 46.292969 C 216.246094 48.730469 202.125 51.476562 188.289062 55.324219 C 173.796875 59.351562 159.605469 64.621094 146.371094 71.785156 C 139.609375 65.304688 132.847656 58.839844 126.128906 52.332031 C 123.464844 49.769531 120.832031 47.175781 118.242188 44.527344 C 117.945312 44.160156 117.644531 43.789062 117.347656 43.417969 C 119.367188 45.496094 121.402344 47.5625 123.464844 49.597656 C 124.433594 50.550781 127.464844 49.269531 126.414062 48.230469 C 114.8125 36.808594 103.953125 24.664062 93.875 11.875 C 94.441406 11.234375 95.011719 10.609375 95.566406 9.953125 C 96.90625 8.414062 93.84375 7.859375 92.878906 8.96875 C 92.648438 9.226562 92.421875 9.484375 92.195312 9.738281 C 91.953125 9.425781 91.695312 9.113281 91.453125 8.800781 C 90.742188 7.875 88.007812 8.585938 88.378906 9.910156 C 88.664062 10.9375 89.019531 11.933594 89.390625 12.914062 C 75.441406 28.609375 60.480469 43.359375 45.292969 57.84375 C 40.964844 61.972656 36.625 66.074219 32.269531 70.175781 C 30.917969 71.113281 29.535156 72.011719 28.125 72.867188 C 27.371094 72.910156 26.589844 72.867188 25.761719 72.738281 C 38.730469 61.132812 51.710938 49.527344 64.679688 37.90625 C 65.191406 37.453125 65.035156 37.09375 64.421875 36.925781 C 63.769531 36.753906 62.660156 37.082031 62.160156 37.535156 C 49.347656 49 36.539062 60.464844 23.726562 71.925781 L 22.375 71.386719 C 22.035156 71.242188 21.507812 71.300781 21.164062 71.386719 C 21.039062 71.429688 20.894531 71.472656 20.753906 71.542969 C -7.515625 64.378906 -36.054688 58.300781 -64.351562 51.25 C -91.441406 44.515625 -118.472656 37.578125 -145.417969 30.375 C -138.101562 31.683594 -130.839844 33.136719 -123.59375 34.875 C -114.757812 36.980469 -105.945312 39.257812 -97.132812 41.480469 C -79.300781 45.980469 -61.449219 50.480469 -43.597656 54.964844 C -23.613281 60.007812 -3.628906 65.035156 16.355469 70.074219 C 17.082031 70.261719 18.089844 70.003906 18.617188 69.464844 C 19.101562 68.980469 18.988281 68.421875 18.289062 68.253906 C 0.355469 63.738281 -17.578125 59.210938 -35.5 54.695312 C -53.335938 50.195312 -71.183594 45.695312 -89.035156 41.210938 C -106.671875 36.769531 -124.277344 31.855469 -142.214844 28.734375 C -150.855469 27.226562 -159.480469 25.84375 -167.949219 23.59375 C -175.992188 21.460938 -183.878906 18.824219 -191.75 16.132812 C -204.6875 11.804688 -217.625 7.191406 -230.992188 4.429688 C -231.09375 4.328125 -231.207031 4.230469 -231.304688 4.113281 C -231.476562 3.929688 -232.046875 3.957031 -232.644531 4.101562 C -235.035156 3.628906 -237.425781 3.230469 -239.847656 2.890625 C -241.851562 2.632812 -243.859375 2.40625 -245.882812 2.222656 C -246.523438 2.164062 -249.113281 3.175781 -247.761719 3.988281 C -241.085938 7.945312 -234.152344 11.449219 -227.019531 14.480469 C -226.523438 14.78125 -226.023438 15.078125 -225.527344 15.378906 L -225.527344 17.769531 C -203.109375 31.15625 -181.128906 45.167969 -159.4375 59.878906 C -155.152344 63.554688 -150.867188 67.214844 -146.511719 70.816406 C -135.351562 80.058594 -124.050781 89.128906 -112.59375 98 C -103.910156 104.738281 -95.128906 111.34375 -86.273438 117.851562 C -102.769531 120.644531 -119.269531 123.433594 -135.765625 126.226562 C -145.585938 127.421875 -155.367188 128.902344 -165.015625 131.039062 C -169.800781 131.820312 -174.582031 132.605469 -179.363281 133.417969 C -187.121094 134.726562 -194.878906 136.078125 -202.625 137.460938 C -204.347656 137.460938 -206.054688 137.515625 -207.777344 137.632812 C -208.359375 137.675781 -209.171875 138.160156 -209.457031 138.671875 C -209.953125 138.757812 -210.453125 138.84375 -210.949219 138.941406 C -211.347656 139.011719 -212.785156 139.3125 -212.816406 139.882812 C -212.84375 140.492188 -211.902344 140.378906 -211.503906 140.308594 C -210.566406 140.152344 -209.625 139.996094 -208.671875 139.824219 C -206.90625 140.507812 -205.144531 141.148438 -203.363281 141.804688 C -203.734375 141.875 -204.105469 141.945312 -204.472656 142.003906 C -204.503906 142.246094 -204.515625 142.5 -204.546875 142.757812 C -201.867188 143.242188 -199.191406 143.726562 -196.515625 144.210938 C -183.066406 148.765625 -169.316406 152.457031 -155.378906 155.21875 C -146.226562 157.027344 -136.988281 158.464844 -127.710938 159.492188 C -125.789062 159.703125 -123.878906 159.875 -121.957031 160.03125 C -117.644531 161.296875 -113.320312 162.539062 -108.976562 163.71875 C -100.605469 166.011719 -92.210938 168.148438 -83.78125 170.183594 C -85.933594 171.9375 -88.136719 173.289062 -90.160156 174.839844 C -117.875 196.117188 -146.257812 216.464844 -175.535156 235.519531 " fill-opacity="1" fill-rule="nonzero"/></g></g></g></g></svg>