<?xml version="1.0" encoding="UTF-8"?><svg id="Capa_1" xmlns="http://www.w3.org/2000/svg" viewBox="0 0 1089 540"><defs><style>.cls-1{fill:#3bb8b8;}</style></defs><path class="cls-1" d="M362.1,326.7c0,2.21-2.21,4.42-4.42,4.42h-70.66c-2.21,0-4.42-2.21-4.42-4.42v-79.5c0-2.21,2.21-4.42,4.42-4.42h70.66c2.21,0,4.42,2.21,4.42,4.42v79.5Zm0-104.52c-2.94-2.94-5.89-2.94-9.57-2.94h-58.89c-2.94,0-5.89-.74-9.57,2.94l-22.08,22.08c-3.68,3.68-4.42,6.62-4.42,11.78v62.57c0,4.42,1.47,8.1,4.42,11.04l23.55,22.08c3.68,2.94,6.62,2.94,9.57,2.94h54.47c2.95,0,5.89,0,9.57-2.94l2.95-2.76v31.47c0,2.21-2.21,4.42-4.42,4.42h-75.82v23.55h68.46c4.42,0,7.36-2.21,10.3-5.15l22.08-19.87c2.94-2.94,4.42-6.62,4.42-11.04v-116.3c0-5.15-1.47-8.1-4.42-11.78l-20.61-22.08Z"/><path class="cls-1" d="M806.51,326.49c0,2.21-2.21,4.42-4.42,4.42h-70.66c-2.21,0-4.42-2.21-4.42-4.42v-79.5c0-2.21,2.21-4.42,4.42-4.42h70.66c2.21,0,4.42,2.21,4.42,4.42v79.5Zm20.61-82.44l-22.08-22.08c-3.68-3.68-6.62-2.94-9.57-2.94h-58.89c-3.68,0-6.62,0-9.57,2.94l-20.61,22.08c-2.95,3.68-4.42,6.62-4.42,11.78v152.37h25.03v-59.44l2.95,2.76c3.68,2.94,6.62,2.94,9.57,2.94h54.47c2.95,0,5.89,0,9.57-2.94l23.55-22.08c2.94-2.94,4.42-6.62,4.42-11.04v-62.57c0-5.15-.74-8.1-4.42-11.78"/><path class="cls-1" d="M504.9,224.38c-3.68-3.68-5.15-5.15-8.1-5.15h-60.36v-53.73h-25.03v189.17h25.03v-107.47c0-2.21,2.21-4.42,4.42-4.42h56.58c2.21,0,4.41,2.21,4.41,4.42v107.47h25.12v-105.26c0-3.68-1.47-5.15-2.94-6.62l-19.14-18.4Z"/><path class="cls-1" d="M653.58,303.41h-.08v23.29c0,2.21-2.21,4.42-4.42,4.42h-69.03c-2.21,0-4.42-2.21-4.42-4.42v-23.29h-.08v-56.21c0-2.21,2.21-4.42,4.42-4.42h69.19c2.21,0,4.42,2.21,4.42,4.42v56.21Zm0-81.23c-2.94-2.94-5.89-2.94-11.04-2.94h-55.94c-5.15,0-8.1,0-11.04,2.94l-20.61,22.08c-2.94,3.68-4.42,6.62-4.42,11.78v62.57c0,4.42,1.47,8.1,4.42,11.04l20.61,19.87c2.94,2.94,5.89,5.15,10.3,5.15h57.41c4.42,0,7.36-2.21,10.31-5.15l20.61-19.87c2.94-2.94,4.42-6.62,4.42-11.04v-62.57c0-5.15-1.47-8.1-4.42-11.78l-20.61-22.08Z"/></svg>